<svg id="Expanded" xmlns="http://www.w3.org/2000/svg" viewBox="0 0 32 32"><defs><style>.cls-1{fill:#202020;}</style></defs><title>unipro-logos-set-for-website-36x36-v01</title><path class="cls-1" d="M26.367,19.181H26.4c.059,0,.118,0,.177-.007a2.737,2.737,0,0,0,2.59-3.393,2.568,2.568,0,0,0-1.361-1.768,3.065,3.065,0,0,0-1.689-.332,2.753,2.753,0,1,0,.246,5.5m3.54-2.772a3.268,3.268,0,0,1-.864,2.282,3.389,3.389,0,0,1-2.015,1.059,3.779,3.779,0,0,1-2.521-.418,3.139,3.139,0,0,1-1.573-2.044A3.339,3.339,0,0,1,25.76,13.1a3.766,3.766,0,0,1,2.386.378,3.153,3.153,0,0,1,1.645,2.063,8.679,8.679,0,0,1,.141.866l-.025,0"/><path class="cls-1" d="M4.354,16.686c-.148-.519-.292-1.023-.435-1.526h-.03c-.163.505-.326,1.01-.493,1.525Zm1.6,1.706c-.045,0-.079,0-.112,0-.308,0-.616,0-.923,0-.086,0-.118-.025-.138-.1-.076-.276-.161-.549-.238-.824a.112.112,0,0,0-.131-.1c-.358.006-.715,0-1.073,0-.08,0-.114.022-.135.094-.083.283-.173.563-.26.845-.013.041-.022.081-.088.08-.311,0-.622,0-.933,0a.289.289,0,0,1-.055-.011c.024-.073.045-.141.069-.209l1.1-3.137a1.583,1.583,0,0,0,.057-.2c.042-.192-.031-.28-.239-.3-.155-.013-.155-.013-.155-.162,0-.179,0-.179.19-.179H4.322a.429.429,0,0,1,.481.338Q5.367,16.42,5.93,18.3c.008.027.013.054.022.09"/><path class="cls-1" d="M16.186,15.663c.107-.083.2-.155.288-.223a1.341,1.341,0,0,1,1.046-.233.666.666,0,0,1,.592.618c.011.136.017.272.018.409,0,.686,0,1.372,0,2.058,0,.086-.027.109-.116.107-.236-.006-.473,0-.709,0-.2,0-.181.028-.182-.174,0-.571,0-1.14,0-1.71,0-.093,0-.186-.01-.279-.013-.173-.1-.243-.28-.247a.8.8,0,0,0-.58.238.187.187,0,0,0-.04.126c0,.646,0,1.291,0,1.937,0,.088-.025.113-.119.111q-.387-.009-.774,0c-.094,0-.113-.027-.113-.109,0-.791,0-1.582,0-2.373a1.129,1.129,0,0,0,0-.13.2.2,0,0,0-.216-.2c-.066,0-.086-.026-.083-.084s0-.139,0-.209c0-.05.016-.075.074-.075.308,0,.616,0,.924,0a.24.24,0,0,1,.262.223c.01.065.01.131.017.215"/><path class="cls-1" d="M13.348,16.9a1.655,1.655,0,0,0-.716.2.307.307,0,0,0-.105.158,1.535,1.535,0,0,0-.007.352.186.186,0,0,0,.177.166.7.7,0,0,0,.462-.122c.13-.074.225-.162.191-.323a.757.757,0,0,1,0-.165Zm-1.4-.758c-.07-.188-.138-.365-.2-.545-.007-.019.032-.063.06-.077A2.816,2.816,0,0,1,12.9,15.24a4.394,4.394,0,0,1,.669.006.74.74,0,0,1,.755.735c.021.322.017.645.02.968,0,.279,0,.558,0,.837,0,.188.038.227.235.271.02.005.036.031.051.049s0,.017,0,.025c.013.266.013.266-.27.266H13.72c-.24,0-.313-.063-.339-.289a.247.247,0,0,0-.014-.044c-.036.025-.066.043-.093.064a1.4,1.4,0,0,1-1.17.27.592.592,0,0,1-.476-.422,1.365,1.365,0,0,1-.015-.783.8.8,0,0,1,.47-.534,3.319,3.319,0,0,1,.828-.226c.119-.022.239-.04.358-.057.054-.008.086-.027.079-.084a1.464,1.464,0,0,0-.015-.147.272.272,0,0,0-.3-.232,2.284,2.284,0,0,0-.95.181l-.134.052"/><path class="cls-1" d="M19.837,17.77h1.436a.292.292,0,0,1,.012.059c0,.166,0,.331,0,.5,0,.052-.017.077-.074.071H18.687c0-.208,0-.4,0-.6,0-.03.033-.061.054-.089l1.266-1.682c.023-.03.044-.061.075-.105-.045,0-.075-.006-.1-.006h-.587c-.251,0-.286.028-.318.266h-.382c0-.032-.006-.057-.006-.082,0-.152,0-.3,0-.454,0-.258.11-.361.384-.361h2.138c0,.034.007.064.008.1,0,.122-.008.245,0,.366a.467.467,0,0,1-.115.336c-.4.525-.795,1.054-1.192,1.583-.022.029-.042.06-.075.108"/><path class="cls-1" d="M9.2,16.4v1.875c0,.122,0,.122-.134.122H8.342c-.135,0-.135,0-.135-.131V14.9c0-.038,0-.075,0-.113-.01-.171-.064-.227-.246-.245-.056,0-.078-.021-.075-.073,0-.07,0-.139,0-.209,0-.044.019-.061.068-.061.32,0,.64,0,.96,0a.278.278,0,0,1,.291.307c0,.543,0,1.087,0,1.63V16.4"/><path class="cls-1" d="M6.083,14.535V14.2h.955c.252,0,.356.1.357.334,0,.6,0,1.192,0,1.788,0,.654,0,1.309,0,1.963,0,.085-.022.117-.12.114-.254-.006-.51-.006-.764,0-.1,0-.118-.032-.118-.115q0-1.684,0-3.367c0-.05,0-.1,0-.149-.013-.156-.068-.208-.235-.227l-.074-.006"/><path class="cls-1" d="M9.709,15.581c0-.107,0-.209,0-.309,0-.017.037-.046.057-.047.324,0,.647-.006.97,0a.26.26,0,0,1,.271.259c0,.043,0,.087,0,.13v2.65c0,.131,0,.131-.144.131-.249,0-.5,0-.746,0-.089,0-.109-.029-.109-.106,0-.781,0-1.563,0-2.345,0-.046,0-.093,0-.139-.015-.154-.077-.21-.241-.221l-.062-.007"/><path class="cls-1" d="M10.464,15.019c-.08-.01-.145-.014-.209-.025a.414.414,0,0,1-.38-.4.409.409,0,0,1,.355-.435.855.855,0,0,1,.5.021.416.416,0,0,1-.019.792,2.117,2.117,0,0,1-.25.046"/><path class="cls-1" d="M26.832,16.375c0,.575,0,1.15,0,1.726,0,.081-.026.1-.111.1q-.354-.008-.708,0c-.09,0-.116-.022-.116-.107q0-1.539,0-3.077a1.041,1.041,0,0,0-.007-.148c-.018-.131-.062-.169-.2-.174-.054,0-.071-.02-.07-.067,0-.082,0-.163,0-.244a.083.083,0,0,1,.057-.058c.294,0,.59-.005.884.01a.248.248,0,0,1,.265.285c0,.491,0,.983,0,1.474v.279"/><path class="cls-1" d="M25.468,16.7c0,.468,0,.936,0,1.4,0,.076-.02.1-.1.1-.243-.005-.485,0-.728,0-.074,0-.105-.017-.1-.092,0-.861,0-1.721,0-2.581,0-.255.095-.339.367-.343.155,0,.311,0,.466,0,.077,0,.1.022.1.1,0,.474,0,.947,0,1.421"/><path class="cls-1" d="M28.267,16.8c0,.433,0,.867,0,1.3,0,.083-.029.1-.112.1-.242,0-.485,0-.727,0-.075,0-.1-.025-.1-.091q0-1.418,0-2.836c0-.067.023-.093.1-.091.165,0,.33,0,.494,0,.243.007.339.1.34.323,0,.43,0,.861,0,1.291Z"/></svg>