<svg id="Expanded" xmlns="http://www.w3.org/2000/svg" viewBox="0 0 32 32"><defs><style>.cls-1{fill:#202020;}</style></defs><title>unipro-logos-set-for-website-36x36-v01</title><path class="cls-1" d="M1.857,17.266A11.516,11.516,0,0,1,2.164,16.1a4.874,4.874,0,0,1,3.54-3.23,1.609,1.609,0,0,1,.925-.013.825.825,0,0,1,.581.882.472.472,0,0,1-.369.494c-.225.059-.45.115-.7.179.058-.192.114-.346.151-.5a.706.706,0,0,0-.051-.549.315.315,0,0,0-.473-.156,3.672,3.672,0,0,0-1.161.827A5.656,5.656,0,0,0,3.028,16.9a3.242,3.242,0,0,0-.014,1.437.792.792,0,0,0,.868.7,2.014,2.014,0,0,0,.6-.187,1.932,1.932,0,0,0,.739-.663l.438.3a4.867,4.867,0,0,1-.378.353,2.606,2.606,0,0,1-2.038.527,1.66,1.66,0,0,1-1.325-1.463c-.017-.108-.04-.215-.06-.323Z"/><path class="cls-1" d="M30.067,14.526a.464.464,0,0,0-.445-.467.46.46,0,1,0-.013.92.459.459,0,0,0,.458-.453m.076.088a.587.587,0,0,1-.387.413.529.529,0,0,1-.33-1,.53.53,0,0,1,.672.3l.045.128Z"/><path class="cls-1" d="M19.272,16.123l-.033-.011c0-.023,0-.046,0-.068a.343.343,0,0,0-.213-.338c-.159-.044-.23.075-.307.178a.254.254,0,0,0-.023.034c-.147.3-.313.593-.433.9a2.585,2.585,0,0,0-.137.668c-.018.171.095.259.267.254a.394.394,0,0,0,.345-.258c.105-.214.211-.428.3-.65s.158-.474.236-.712m2.507.055c-.006-.078-.01-.156-.018-.233a.5.5,0,0,0-.028-.106c-.059-.16-.135-.177-.243-.046q-.375.459-.743.922c-.078.1-.05.165.075.2a1.651,1.651,0,0,1,.2.058.168.168,0,0,1,.1.225.183.183,0,0,1-.221.14.653.653,0,0,1-.217-.08.177.177,0,0,0-.267.074.291.291,0,0,0-.019.312.432.432,0,0,0,.767.107,2.434,2.434,0,0,0,.615-1.571m2.574,1.233c0,.481.181.618.512.482a.835.835,0,0,0,.291-.221,2.069,2.069,0,0,0,.46-1.116,2.653,2.653,0,0,0,.027-.534.341.341,0,0,0-.279-.306c-.136-.037-.222.048-.3.144a2.982,2.982,0,0,0-.529.944c-.083.237-.142.481-.179.607m-7.479-1.725.427.181c-.174.5-.347.985-.51,1.473a1.466,1.466,0,0,0-.075.387.146.146,0,0,0,.227.152.872.872,0,0,0,.284-.21,6.214,6.214,0,0,0,.449-.61,1.156,1.156,0,0,0,.1-.313,1.792,1.792,0,0,1,.659-.992.644.644,0,0,1,.792-.069c.106.069.15-.007.18-.092.111-.316.22-.633.33-.95.132-.376.264-.751.4-1.148.128.11.246.2.352.308.022.022.009.093,0,.136q-.413,1.257-.828,2.511c-.1.3-.2.61-.3.916a1.056,1.056,0,0,0-.05.228.226.226,0,0,0,.336.233.68.68,0,0,0,.22-.183c.568-.723,1.13-1.451,1.7-2.174a.274.274,0,0,0,.053-.291.418.418,0,0,1,.18-.491.21.21,0,0,1,.338.172.4.4,0,0,1-.166.373.411.411,0,0,0-.158.539c.078.2.17.4.228.6a1.066,1.066,0,0,1-.066.9.443.443,0,0,0,.623-.226c.194-.49.371-.988.554-1.483,0-.008,0-.018,0-.041h-.372c0-.089.022-.126.108-.127.307,0,.307-.006.406-.3l.28-.84.363.2c-.1.314-.2.619-.3.947l.3.014c.006.109-.068.119-.138.108-.16-.026-.219.051-.265.2-.186.578-.386,1.15-.58,1.725a.633.633,0,0,0-.04.146c-.021.206.13.318.314.225a1.948,1.948,0,0,0,.663-.613.939.939,0,0,0,.083-.3,1.983,1.983,0,0,1,.667-1.1.93.93,0,0,1,.607-.227.547.547,0,0,1,.535.572,3.2,3.2,0,0,1-.006.427c-.008.126.02.159.147.132a.7.7,0,0,0,.491-.464c.073-.172.12-.355.185-.552a2.375,2.375,0,0,1,.393.008c.046.007.077.105.122.172.063-.037.138-.088.218-.129a1.5,1.5,0,0,1,.24-.1.421.421,0,0,1,.57.529,8.7,8.7,0,0,1-.335.886c-.058.145-.134.282-.187.429a.542.542,0,0,0-.027.243.218.218,0,0,0,.368.165,1.143,1.143,0,0,0,.261-.281c.145-.228.273-.467.409-.7a.325.325,0,0,1,.124-.13.538.538,0,0,1,0,.127,1.786,1.786,0,0,1-.7,1.038.564.564,0,0,1-.445.1c-.369-.075-.514-.336-.379-.734.1-.308.248-.6.372-.9a1.949,1.949,0,0,0,.123-.348c.038-.183-.085-.294-.268-.253a.806.806,0,0,0-.462.372,3.617,3.617,0,0,0-.432,1.039c-.068.209-.138.418-.2.629a.126.126,0,0,1-.136.1c-.124,0-.247.016-.4.028.138-.434.269-.849.4-1.267a.514.514,0,0,0-.569.323,1.709,1.709,0,0,1-.485.85A.764.764,0,0,1,24,17.714c-.029-.051-.043-.111-.069-.164-.017-.038-.043-.1-.063-.1a.215.215,0,0,0-.123.063c-.117.11-.218.238-.344.335a.87.87,0,0,1-.322.149.436.436,0,0,1-.56-.425c0-.063,0-.127,0-.17-.2.023-.386.04-.573.068-.038.006-.072.049-.1.08a4.221,4.221,0,0,1-.417.4.724.724,0,0,1-1.119-.291c-.086-.168-.1-.166-.243-.044a3.747,3.747,0,0,1-.488.378.447.447,0,0,1-.641-.248c-.038-.1-.082-.107-.159-.041a2.726,2.726,0,0,1-.321.258.442.442,0,0,1-.661-.191,1.6,1.6,0,0,1-.092-.245c-.04-.129-.093-.15-.192-.058s-.174.19-.265.281a1.26,1.26,0,0,1-.2.182.474.474,0,0,1-.545.017.412.412,0,0,1-.18-.484c.162-.579.345-1.151.521-1.726,0-.012.016-.021.036-.047"/><path class="cls-1" d="M12.7,19.014h-.934c.054-.158.1-.3.152-.45q.69-2.005,1.381-4.012c.184-.534.367-1.068.555-1.6.014-.041.067-.1.1-.1.257-.008.514,0,.79,0a20.456,20.456,0,0,0-.777,2.53l.042.032a3.245,3.245,0,0,0,.308-.275c.286-.324.56-.658.844-.984a5.772,5.772,0,0,1,2.061-1.537c.041-.018.084-.032.141-.053.088.3.172.581.259.873a13.356,13.356,0,0,0-2.941,1.969c.18.3.371.568.516.861a9.951,9.951,0,0,1,.771,2.351.162.162,0,0,1-.048.135c-.319.225-.644.443-1,.683,0-.078,0-.13,0-.181a9.743,9.743,0,0,0-.333-2.8c-.048-.177-.1-.353-.163-.526s-.15-.183-.287-.087a1.879,1.879,0,0,0-.778,1.065c-.2.707-.441,1.4-.666,2.1"/><path class="cls-1" d="M6.69,16.073c.007-.2-.068-.337-.181-.377-.134-.046-.217.035-.294.126a2.862,2.862,0,0,0-.624,1.152,3.293,3.293,0,0,0-.085.541.279.279,0,0,0,.168.293.29.29,0,0,0,.306-.071.972.972,0,0,0,.18-.188,2.988,2.988,0,0,0,.53-1.476m2.1,1.876c-.045-.194-.065-.2-.239-.113a1.572,1.572,0,0,1-.373.135.4.4,0,0,1-.517-.326.788.788,0,0,0-.07-.135.677.677,0,0,0-.132.1.924.924,0,0,1-.629.36.377.377,0,0,1-.43-.244c-.056-.129-.074-.133-.182-.044-.061.049-.118.1-.182.148a.481.481,0,0,1-.8-.286,1.656,1.656,0,0,1,.508-1.7,1.39,1.39,0,0,1,.348-.244.483.483,0,0,1,.632.13c.075.086.123.1.181-.013a.163.163,0,0,1,.111-.071,2.736,2.736,0,0,1,.289,0,.929.929,0,0,1-.025.106q-.287.849-.574,1.7c-.014.039-.029.077-.04.117-.058.228.035.33.274.295a.744.744,0,0,0,.452-.294,2.137,2.137,0,0,0,.362-.707c.151-.419.308-.836.461-1.254a.4.4,0,0,0,.011-.078H7.912c-.02-.1.016-.13.1-.134.282-.011.281-.014.375-.288.087-.252.177-.5.266-.754a.212.212,0,0,1,.03-.044l.338.179c-.1.3-.2.592-.3.909l.259.024L9,15.454c-.04.022-.085.068-.121.062-.162-.025-.219.055-.268.2-.19.551-.4,1.1-.588,1.647a1.192,1.192,0,0,0-.061.351c-.006.142.086.211.224.183a.862.862,0,0,0,.7-.575q.468-1.311.937-2.621c.127-.354.255-.707.38-1.056.022,0,.032,0,.039,0,.343.132.344.132.227.476-.171.5-.346,1-.515,1.5a1.5,1.5,0,0,0-.042.232l.039.019.219-.152a.633.633,0,0,1,.537-.1.3.3,0,0,1,.245.28,1.636,1.636,0,0,1-.168.745c-.094.249-.217.487-.307.737a.741.741,0,0,0-.025.338.2.2,0,0,0,.352.126,2.034,2.034,0,0,0,.318-.428,4.446,4.446,0,0,0,.25-.537.12.12,0,0,1,.166-.085c.005.011.014.02.013.027a2.585,2.585,0,0,1-.533,1.061.569.569,0,0,1-.714.121.516.516,0,0,1-.188-.6c.1-.316.22-.622.33-.934.04-.112.076-.227.107-.342a.265.265,0,0,0-.084-.323.244.244,0,0,0-.326.06,2.514,2.514,0,0,0-.406.581c-.19.451-.342.92-.5,1.386-.034.1-.073.141-.178.132-.09-.008-.182,0-.27,0"/><path class="cls-1" d="M17.786,14.426a.664.664,0,0,1-.292.554c-.15.092-.278.022-.284-.154a.6.6,0,0,1,.241-.515.268.268,0,0,1,.221-.052c.061.028.09.128.114.167"/><path class="cls-1" d="M29.572,14.244c-.058.078-.1.115-.115.161-.02.078.038.114.106.1a.772.772,0,0,0,.164-.089l-.155-.168m.106.316.147.223-.032.027a.818.818,0,0,1-.085-.081.865.865,0,0,0-.088-.122.175.175,0,0,0-.122-.037c-.02,0-.036.064-.044.1a.923.923,0,0,0-.011.129h-.037v-.542a1.15,1.15,0,0,1,.234,0c.059.012.141.053.154.1s-.042.114-.071.17c-.007.014-.028.02-.045.032"/></svg>