<svg id="Expanded" xmlns="http://www.w3.org/2000/svg" viewBox="0 0 32 32"><defs><style>.cls-1{fill:#202020;}</style></defs><title>unipro-logos-set-for-website-36x36-v01</title><path class="cls-1" d="M16.373,20.893c.352-.011.889-.017,1.426-.046.663-.036,1.326-.08,1.987-.14.9-.082,1.792-.209,2.679-.374a21.57,21.57,0,0,0,3.969-1.1,9.9,9.9,0,0,0,2.088-1.084A4.024,4.024,0,0,0,29.7,16.976a1.908,1.908,0,0,0-.059-2.224,3.562,3.562,0,0,0-.7-.746,9.409,9.409,0,0,0-2.37-1.372,20.578,20.578,0,0,0-4.355-1.174,27.024,27.024,0,0,0-2.865-.349c-.875-.055-1.751-.1-2.627-.121-.6-.016-1.2,0-1.8.023q-1.213.054-2.426.156c-.874.074-1.741.2-2.6.358a22.724,22.724,0,0,0-3.565.929,10.921,10.921,0,0,0-2.485,1.206,4.225,4.225,0,0,0-1.218,1.171,1.887,1.887,0,0,0,.031,2.283,4.322,4.322,0,0,0,.9.92,8.965,8.965,0,0,0,2.264,1.251,21.876,21.876,0,0,0,4.551,1.177c.919.148,1.844.25,2.773.32,1.015.077,2.032.107,3.237.109M2.157,15.788c.03-.145.05-.294.094-.436a2.893,2.893,0,0,1,.861-1.269,7.813,7.813,0,0,1,2.213-1.358,18.438,18.438,0,0,1,3.3-1.047,29.317,29.317,0,0,1,3.174-.534q1.473-.171,2.957-.219c.216-.007.432-.011.647-.017a.5.5,0,0,0,.066-.011H16.8c.146.007.291.011.437.019.743.041,1.489.064,2.229.132.792.072,1.584.165,2.369.286a20.611,20.611,0,0,1,4.807,1.271,9.373,9.373,0,0,1,2.328,1.357,3.107,3.107,0,0,1,.971,1.2,4.616,4.616,0,0,1,.156.565l.016.063v.3c-.021.108-.036.217-.063.324A2.7,2.7,0,0,1,29.3,17.65a6.78,6.78,0,0,1-1.9,1.289A16.833,16.833,0,0,1,24.07,20.1a28.287,28.287,0,0,1-3.386.61q-1.365.168-2.741.225c-.356.015-.713.023-1.069.035-.025,0-.05.007-.075.01h-1.33c-.142-.006-.285-.01-.428-.018-.68-.036-1.361-.059-2.039-.114-.659-.054-1.315-.131-1.97-.214a24.881,24.881,0,0,1-2.614-.482,18.1,18.1,0,0,1-2.931-.932,8.313,8.313,0,0,1-2.257-1.37,3.227,3.227,0,0,1-.924-1.211,4.33,4.33,0,0,1-.133-.494c0-.019-.011-.037-.016-.055Z"/><path class="cls-1" d="M15.95,20.342c.072,0,.144,0,.216,0,.393-.007.788-.007,1.181-.025.655-.029,1.31-.059,1.963-.108.854-.063,1.7-.169,2.549-.306a23.333,23.333,0,0,0,3.382-.783A11.086,11.086,0,0,0,27.787,18a3.989,3.989,0,0,0,1.176-1.047,1.613,1.613,0,0,0,.249-1.557,2.5,2.5,0,0,0-.733-1,6.585,6.585,0,0,0-1.642-1.025,16.424,16.424,0,0,0-3.182-1.046,30.329,30.329,0,0,0-4.357-.66c-1.049-.088-2.1-.125-3.153-.128-.408,0-.817,0-1.225.024-.718.034-1.437.059-2.152.126-.789.074-1.576.175-2.359.292a21.122,21.122,0,0,0-3.635.862,10.434,10.434,0,0,0-2.365,1.087A3.838,3.838,0,0,0,3.281,14.96a1.634,1.634,0,0,0-.3,1.251,2.069,2.069,0,0,0,.571,1.041,5.053,5.053,0,0,0,1.269.945,12.616,12.616,0,0,0,2.6,1.042,28.307,28.307,0,0,0,5.785.991q1.372.106,2.749.112m-.035.457c-.693-.029-1.6-.051-2.507-.111a29.577,29.577,0,0,1-5.139-.772A16.684,16.684,0,0,1,5.039,18.8a7.111,7.111,0,0,1-1.728-1.11,2.964,2.964,0,0,1-.77-1.018,1.855,1.855,0,0,1,.208-1.855,4.283,4.283,0,0,1,1.275-1.184,11.3,11.3,0,0,1,2.578-1.2,23.238,23.238,0,0,1,3.612-.882c.909-.154,1.824-.27,2.744-.34.665-.05,1.331-.091,2-.108.738-.02,1.478-.026,2.217-.006s1.47.07,2.2.122c.834.059,1.664.166,2.489.3a21.617,21.617,0,0,1,4.69,1.244,8.77,8.77,0,0,1,2.116,1.169,3.639,3.639,0,0,1,.887.941,1.856,1.856,0,0,1,0,2.1,3.967,3.967,0,0,1-1.165,1.15A10.377,10.377,0,0,1,26,19.317a21.894,21.894,0,0,1-3.553.93c-.859.158-1.723.281-2.594.359-.687.061-1.375.106-2.064.142-.551.028-1.1.031-1.872.051"/><path class="cls-1" d="M14.97,13.4c.048.01.085.016.121.025.544.138,1.087.281,1.633.414a5.529,5.529,0,0,0,2.057.174,2.4,2.4,0,0,0,1.186-.473.533.533,0,0,0,.223-.335c.027-.171-.07-.262-.244-.225a9.138,9.138,0,0,1-1.6.2,12.955,12.955,0,0,1-2.311-.153c-.8-.115-1.6-.242-2.4-.343a6.786,6.786,0,0,0-1.823,0,3.253,3.253,0,0,0-1.495.582,1.489,1.489,0,0,0-.676,1.174.894.894,0,0,0,.758.938,1.308,1.308,0,0,0,.842-.141,2.156,2.156,0,0,0,.993-1.127.245.245,0,0,0,.018-.081c.006-.07,0-.138-.082-.166s-.123.023-.171.078a3.44,3.44,0,0,1-.353.371,1.221,1.221,0,0,1-.64.3.418.418,0,0,1-.515-.5.92.92,0,0,1,.124-.313,1.442,1.442,0,0,1,.765-.565,3.646,3.646,0,0,1,1.7-.171c.458.054.914.137,1.37.209.046.007.09.021.155.037-.037.025-.053.04-.072.05a3.872,3.872,0,0,0-1.156.881c-.231.244-.429.518-.639.781a.238.238,0,0,1-.181.107,2.844,2.844,0,0,0-.289.045,2.51,2.51,0,0,0-.959.329.469.469,0,0,0-.1.081.156.156,0,0,0,0,.2.167.167,0,0,0,.2.029c.026-.011.047-.032.073-.045a4.338,4.338,0,0,1,.433-.2,2.371,2.371,0,0,1,.372-.067l.012.028-.169.225a9.222,9.222,0,0,1-1.353,1.49,2.077,2.077,0,0,1-1.094.524.817.817,0,0,1-.876-.406.748.748,0,0,1,.124-.824A1.555,1.555,0,0,1,9.49,16.1c.079-.04.132-.089.118-.181a.191.191,0,0,0-.18-.164.967.967,0,0,0-.3.027,1.607,1.607,0,0,0-1.17,1.526,1.326,1.326,0,0,0,1.1,1.347,2.181,2.181,0,0,0,1.643-.292,4.584,4.584,0,0,0,1.2-1.14,20.106,20.106,0,0,0,1.19-1.755.163.163,0,0,1,.133-.09c.395-.035.79-.072,1.185-.1a.213.213,0,0,1,.117.048c.11.076.211.162.324.232a.147.147,0,0,0,.221-.046c.052-.09-.025-.121-.081-.162s-.114-.085-.189-.141l.127-.049a.686.686,0,0,0,.424-.45.393.393,0,0,0-.113-.454.448.448,0,0,0-.509-.022.66.66,0,0,0-.355.653c0,.078-.013.105-.1.108-.27.01-.539.028-.809.042a.705.705,0,0,1-.081-.012c.135-.176.252-.343.384-.5a5.96,5.96,0,0,1,1.111-.952c.06-.043.105-.085.086-.173m3.645,2.953c0,.035,0,.062,0,.089a.377.377,0,0,0,.469.392.556.556,0,1,0-.274-1.072,1.252,1.252,0,0,0-.723.478l-.063.074-.022,0c0-.042-.005-.084-.006-.126a.494.494,0,0,0-.646-.5,1.273,1.273,0,0,0-.628.31c-.206.184-.395.385-.592.579-.02.019-.043.036-.079.065,0-.044-.007-.069-.009-.092a1.3,1.3,0,0,0-.176-.609.178.178,0,0,0-.256-.073c-.053.025-.107.053-.158.083-.133.08-.141.112-.105.26a1.635,1.635,0,0,1-.254,1.415,1.131,1.131,0,0,1-.644.46.491.491,0,0,1-.651-.439,1.092,1.092,0,0,1,.212-.72,2.024,2.024,0,0,1,.966-.732c.163-.066.188-.037.108-.235-.059-.146-.112-.178-.274-.159a2.153,2.153,0,0,0-.961.363,2.356,2.356,0,0,0-.858,1.1,1.855,1.855,0,0,1-.558.742c-.184.153-.236.118-.031.372.062.078.1.086.179.024.136-.107.265-.221.4-.332L13.038,18c.015.014.024.018.027.025.013.027.024.056.035.084a.928.928,0,0,0,.519.558,1.293,1.293,0,0,0,1.091-.041,2.451,2.451,0,0,0,.873-.725c.23-.286.452-.579.689-.86a2.916,2.916,0,0,1,.711-.635.729.729,0,0,1,.212-.087c.114-.025.19.04.173.151a.6.6,0,0,1-.076.217c-.181.3-.366.607-.556.906-.216.339-.441.672-.66,1.01-.056.086-.038.111.068.111.19,0,.38,0,.57,0a.179.179,0,0,0,.174-.092q.47-.709.945-1.415c.015-.023.034-.044.061-.079.012.073.018.124.028.175a.615.615,0,0,0,.644.52,1.383,1.383,0,0,0,.693-.225c.031-.018.062-.033.108-.057,0,.04,0,.064,0,.087a2.951,2.951,0,0,0,.008.461.814.814,0,0,0,1.009.665,1.7,1.7,0,0,0,.8-.434c.022-.018.047-.035.081-.061.012.065.018.114.031.161a.558.558,0,0,0,.687.391,1.7,1.7,0,0,0,.655-.263,5.431,5.431,0,0,0,1.108-1c.173-.2.188-.139-.027-.333a.088.088,0,0,0-.14,0c-.15.148-.3.3-.458.438-.2.177-.418.346-.634.51a.47.47,0,0,1-.323.1.159.159,0,0,1-.155-.209.916.916,0,0,1,.1-.218c.3-.47.6-.941.911-1.406.417-.629.841-1.253,1.261-1.881a.359.359,0,0,0,.03-.089.534.534,0,0,0-.089-.015c-.218,0-.437,0-.656,0a.164.164,0,0,0-.116.062c-.41.6-.816,1.2-1.224,1.794a.614.614,0,0,1-.062.067.254.254,0,0,1-.023-.039.6.6,0,0,0-.429-.457,1.142,1.142,0,0,0-.784.017,2.633,2.633,0,0,0-.8.491c-.271.223-.539.449-.815.666a1.229,1.229,0,0,1-.487.24.383.383,0,0,1-.5-.278.729.729,0,0,1,.247-.649c.006,0,.016,0,.04-.006m-2.482-4.418c.964-.014,1.926.02,2.887.091a29.847,29.847,0,0,1,4.917.743,14.331,14.331,0,0,1,2.889,1,5.255,5.255,0,0,1,1.427.96,1.973,1.973,0,0,1,.525.807,1.378,1.378,0,0,1-.207,1.225,3.36,3.36,0,0,1-1.015.934,9.676,9.676,0,0,1-2.182.995,22.138,22.138,0,0,1-3.51.829c-.86.138-1.724.244-2.593.306q-1.019.073-2.041.105c-.626.019-1.254.026-1.88.01-.733-.018-1.466-.05-2.2-.107s-1.483-.136-2.219-.238a20.367,20.367,0,0,1-4.852-1.205,7.1,7.1,0,0,1-1.751-.965,2.833,2.833,0,0,1-.629-.655,1.4,1.4,0,0,1,.028-1.706,3.517,3.517,0,0,1,1.06-.936,9.935,9.935,0,0,1,2.143-.958,22.114,22.114,0,0,1,3.479-.816,31.527,31.527,0,0,1,3.186-.347c.543-.031,1.086-.053,1.629-.07.3-.009.6,0,.9,0"/><path class="cls-1" d="M21.684,17.072a2.2,2.2,0,0,1-.92,1,.715.715,0,0,1-.261.072.274.274,0,0,1-.319-.264,1.085,1.085,0,0,1,.131-.608,2.149,2.149,0,0,1,.681-.8.7.7,0,0,1,.419-.156.28.28,0,0,1,.294.335,1.12,1.12,0,0,1-.08.252c-.034.072-.041.126.055.167"/><path class="cls-1" d="M14.692,14.753a.4.4,0,0,1,.153-.274.152.152,0,0,1,.188-.033c.071.043.05.112.03.171a.45.45,0,0,1-.241.257c-.106.052-.131.035-.13-.121"/></svg>