<svg id="Expanded" xmlns="http://www.w3.org/2000/svg" viewBox="0 0 32 32"><defs><style>.cls-1{fill:#202020;}</style></defs><title>unipro-logos-set-for-website-36x36-v01</title><path class="cls-1" d="M8.252,14.251l.035-.061a2.456,2.456,0,0,0-.218-.215A.115.115,0,0,0,7.954,14a.131.131,0,0,0,.012.123,2.616,2.616,0,0,0,.286.127m1.01-.377c0-.206-.123-.364-.27-.368a.583.583,0,0,0-.5.289.088.088,0,0,0-.015.062c.045.185.09.37.143.552a.09.09,0,0,0,.147.057,4,4,0,0,0,.316-.251c.026-.023.024-.082.05-.1a.328.328,0,0,0,.127-.241m1.8,5.363c-.072-.035-.143-.075-.217-.1a.756.756,0,0,1-.5-.681.729.729,0,0,1,.086-.3c.075-.192.011-.325-.187-.358-.022,0-.072.045-.076.074q-.04.334-.068.67c-.026.309-.043.619-.069.929a.255.255,0,0,1-.291.265c-.1,0-.2-.005-.295,0a.138.138,0,0,1-.16-.118.235.235,0,0,1,.09-.191c.154-.061.175-.168.178-.317.007-.543.023-1.086.043-1.629a.446.446,0,0,0-.118-.345c-.073-.081-.138-.171-.207-.256l-.049.03c-.012.07-.027.141-.034.212-.026.279-.049.559-.073.838l-.1,1.162c-.009.1-.018.2-.028.3a.216.216,0,0,1-.217.218c-.109,0-.219,0-.328,0-.069,0-.2-.1-.2-.165a.17.17,0,0,1,.136-.189c.164-.048.186-.188.188-.33,0-.329,0-.659,0-.988q-.011-1-.027-1.991c0-.165-.012-.33-.023-.5-.01-.142,0-.157.145-.165a.919.919,0,0,0,.551-.217,1.258,1.258,0,0,0,.33-.471l-.027-.026a1.379,1.379,0,0,0-.109.107,1.243,1.243,0,0,1-.849.425c-.045.006-.1-.034-.144-.06a.248.248,0,0,1-.059-.065.529.529,0,0,0-.51-.21,1.619,1.619,0,0,1-.348.017.531.531,0,0,1-.2-.068.407.407,0,0,1-.095-.091c-.135-.146-.135-.146-.006-.294a.125.125,0,0,0-.017-.208c-.031-.026-.065-.046-.111-.077A.64.64,0,0,1,7.154,14a2.461,2.461,0,0,1,.31-.188.538.538,0,0,0,.283-.39.312.312,0,0,1,.161-.212,1,1,0,0,0,.176-.111c.023-.02.024-.068.035-.1A.377.377,0,0,0,8,12.959c-.031,0-.058.041-.088.061a.23.23,0,0,1-.093.048.65.65,0,0,1-.143-.021.521.521,0,0,1,.051-.147c.068-.093.151-.173.218-.266a.207.207,0,0,1,.342,0,.791.791,0,0,0,.513.282.993.993,0,0,1,.841.931c0,.07.016.141.023.211a.2.2,0,0,0,.128.176c.105.043.2.1.306.149a3.826,3.826,0,0,1,1.206.854,5,5,0,0,1,1.151,1.873,2.634,2.634,0,0,1,.18,1.054,4.8,4.8,0,0,1-.113,1.09c-.1.313-.248.477-.576.483-.448.009-.9.007-1.345.01-.172,0-.231-.049-.259-.219-.014-.082.133-.241.229-.242.128,0,.255,0,.383,0,.034,0,.067-.006.1-.009l.008-.034"/><path class="cls-1" d="M22.131,14.86c.148-.114.283-.236.434-.332a1.974,1.974,0,0,1,2.993,1.4,2.526,2.526,0,0,1,.029.369q0,1.2,0,2.4a.53.53,0,0,1-.44.581.524.524,0,0,1-.6-.452c-.006-.067-.007-.135-.007-.2V16.388a1.106,1.106,0,0,0-.237-.751.928.928,0,0,0-1.026-.268.947.947,0,0,0-.608.889q0,1.217,0,2.432a.552.552,0,0,1-.425.576.518.518,0,0,1-.627-.487c-.008-.292,0-.585,0-.878,0-.525,0-1.051,0-1.576a.965.965,0,0,0-.722-.987.938.938,0,0,0-1.151.9c0,.822,0,1.644,0,2.466a.543.543,0,0,1-.418.557.521.521,0,0,1-.634-.5c0-.848,0-1.7,0-2.545a2.033,2.033,0,0,1,1.719-1.974,1.917,1.917,0,0,1,1.63.541l.072.068a.067.067,0,0,0,.021.009"/><path class="cls-1" d="M15.2,14.472c.212-.071.4-.152.6-.2a2.089,2.089,0,0,1,2.5,1.769,1.843,1.843,0,0,1,.021.257q0,1.221,0,2.442a.526.526,0,0,1-.379.517.537.537,0,0,1-.674-.555c0-.769,0-1.538,0-2.307a1.044,1.044,0,0,0-.817-1.062,1.031,1.031,0,0,0-1.236.885,2.188,2.188,0,0,0-.019.291c0,.747,0,1.494,0,2.24a.526.526,0,0,1-.378.507.535.535,0,0,1-.675-.518c0-.022,0-.045,0-.067q0-2.926,0-5.852a.585.585,0,0,1,.2-.478.494.494,0,0,1,.544-.072.488.488,0,0,1,.309.475c0,.529,0,1.058,0,1.587,0,.046.006.093.01.139"/><path class="cls-1" d="M5.855,15.5l-.03.027c.024.029.047.06.073.089.082.1.168.186.246.285a.291.291,0,0,1,0,.3,3.943,3.943,0,0,1-.363.357c-.532.424-1.071.841-1.608,1.26-.028.022-.052.049-.078.073l.019.024c.047-.026.1-.05.141-.079.137-.085.272-.174.409-.259q.836-.522,1.673-1.041a.26.26,0,0,0,.122-.334,1.742,1.742,0,0,0-.609-.7M3.969,18.239a1.846,1.846,0,0,0,.205.026c.171,0,.343,0,.514,0A.333.333,0,0,1,5,18.589c0,.214.014.427.012.641,0,.1.049.137.132.158s.153.035.191.127a.183.183,0,0,1-.138.263.659.659,0,0,1-.077,0H2.258c-.094,0-.179-.008-.213-.113a.229.229,0,0,1,.13-.256.245.245,0,0,1,.062-.023.157.157,0,0,0,.135-.191c-.013-.161-.017-.323-.015-.484,0-.22.12-.469.409-.441a.352.352,0,0,0,.363-.2c.593-.909,1.2-1.812,1.8-2.716a.376.376,0,0,1,.03-.047.466.466,0,0,0,.089-.435,3,3,0,0,1-.049-.513.474.474,0,0,1,.259-.328.707.707,0,0,1,.383.046,2.55,2.55,0,0,1,.942.779,6.7,6.7,0,0,1,.582.838,2.215,2.215,0,0,1,.329.907.585.585,0,0,1-.1.485.412.412,0,0,1-.506.076,3.266,3.266,0,0,0-.386-.154.279.279,0,0,0-.187.01c-.751.379-1.5.764-2.249,1.148a.781.781,0,0,0-.09.069"/><path class="cls-1" d="M27.7,17.587c.035-.075.063-.125.083-.179Q28.326,16,28.862,14.6a.52.52,0,0,1,.555-.361.511.511,0,0,1,.459.415.6.6,0,0,1-.049.382q-.771,1.844-1.54,3.687c-.031.076-.063.152-.1.227a.521.521,0,0,1-.975-.006q-.225-.531-.446-1.063c-.4-.954-.793-1.909-1.2-2.86a.561.561,0,0,1,.225-.726.518.518,0,0,1,.74.289c.13.334.247.673.376,1.007.239.624.483,1.246.726,1.868.014.037.034.072.064.133"/></svg>