<svg id="Expanded" xmlns="http://www.w3.org/2000/svg" viewBox="0 0 32 32.053"><defs><style>.cls-1{fill:#202020;}</style></defs><title>unipro-logos-set-for-website-36x36-v01</title><path class="cls-1" d="M9.532,17.644a.056.056,0,0,0,.057.071H9.86a.059.059,0,0,0,.055-.047L10.09,16.5H10.1l.534,1.21a.054.054,0,0,0,.051.033h.054a.052.052,0,0,0,.052-.033l.527-1.21h.009l.178,1.166a.066.066,0,0,0,.057.047h.274a.053.053,0,0,0,.054-.071l-.355-2.069a.051.051,0,0,0-.054-.046H11.43a.052.052,0,0,0-.051.03l-.662,1.454h-.01l-.663-1.454a.055.055,0,0,0-.051-.03H9.945a.051.051,0,0,0-.054.046Zm2.769.012a.058.058,0,0,0,.054.059h.714a1.078,1.078,0,0,0,0-2.156h-.714a.058.058,0,0,0-.054.059Zm.388-.317V15.931h.344a.7.7,0,0,1,0,1.408Zm1.836.317a.058.058,0,0,0,.056.059h1.1a.058.058,0,0,0,.057-.059V17.4a.058.058,0,0,0-.057-.059h-.768V15.618a.061.061,0,0,0-.057-.059h-.278a.058.058,0,0,0-.056.059Zm2.069-.015c-.009.043.009.074.054.074h.121a.059.059,0,0,0,.054-.043l.262-1.586H17.1l.561,1.626a.06.06,0,0,0,.051.033h.054a.061.061,0,0,0,.051-.033l.554-1.626h.012l.269,1.586a.063.063,0,0,0,.054.043h.12c.046,0,.064-.031.055-.074l-.389-2.069a.057.057,0,0,0-.054-.043h-.049a.056.056,0,0,0-.05.033l-.588,1.7h-.015l-.6-1.7a.057.057,0,0,0-.051-.033h-.048a.057.057,0,0,0-.054.043Zm2.531.074h.12a.055.055,0,0,0,.051-.034l.22-.509h1.07l.223.509a.056.056,0,0,0,.051.034h.12a.054.054,0,0,0,.051-.08l-.909-2.073a.054.054,0,0,0-.051-.033H20.04a.054.054,0,0,0-.051.033l-.916,2.073a.055.055,0,0,0,.052.08m.476-.733.439-1.01h.025c.147.336.292.675.439,1.01Zm1.819.674a.059.059,0,0,0,.057.059H21.6a.06.06,0,0,0,.057-.059v-.785h.576l.4.816a.055.055,0,0,0,.049.028h.153a.059.059,0,0,0,.051-.09l-.412-.782a.686.686,0,0,0,.446-.628.654.654,0,0,0-.657-.656h-.781a.059.059,0,0,0-.057.059Zm.238-.988v-.884h.585a.442.442,0,0,1,0,.884Zm1.814.988a.06.06,0,0,0,.057.059h.12a.06.06,0,0,0,.058-.059V15.618a.06.06,0,0,0-.058-.059h-.12a.06.06,0,0,0-.057.059Zm.91,0a.06.06,0,0,0,.057.059h.105a.058.058,0,0,0,.057-.059V15.981h0l1.384,1.764h.054a.057.057,0,0,0,.057-.055V15.618a.06.06,0,0,0-.057-.059h-.106a.058.058,0,0,0-.057.059v1.641h-.006l-1.359-1.73h-.075a.057.057,0,0,0-.057.055Zm2.154.059h.12a.059.059,0,0,0,.052-.034l.219-.509H28l.223.509a.056.056,0,0,0,.051.034h.121a.054.054,0,0,0,.051-.08l-.91-2.073a.054.054,0,0,0-.052-.033h-.029a.053.053,0,0,0-.051.033l-.916,2.073a.054.054,0,0,0,.051.08m.476-.733.44-1.01h.024c.147.336.292.675.44,1.01Zm1.7.514a.97.97,0,0,0,.635.249A.6.6,0,0,0,30,17.191c0-.357-.262-.514-.668-.684-.253-.107-.407-.227-.407-.434,0-.129.1-.339.416-.339a.835.835,0,0,1,.394.142.068.068,0,0,0,.106-.028c.012-.018.024-.04.036-.058a.07.07,0,0,0-.018-.1.977.977,0,0,0-.516-.156.577.577,0,0,0-.641.547c0,.351.2.49.53.638.347.148.527.274.527.486a.366.366,0,0,1-.4.34.825.825,0,0,1-.51-.235c-.042-.036-.075-.012-.105.028-.015.018-.03.04-.045.058a.069.069,0,0,0,.018.105"/><path class="cls-1" d="M4.51,15.207l.705-1.881v1.363ZM2.416,16.816l1.9-3.676v3.885Zm5.568-.745c0-.072.007-.134.007-.208A3.029,3.029,0,0,0,5,12.8a3.029,3.029,0,0,0-3,3.062,3.1,3.1,0,0,0,.312,1.362l2.2,0v-1.8l1.265-.911,1.024.89L4.99,16.728v.233L7.151,15.38Zm-5.4,1.6A2.969,2.969,0,0,0,5,18.926a2.917,2.917,0,0,0,2.395-1.252ZM6.916,16.19h.347v-.527H6.916Zm-.964-.4h-.38v-.721h.38Z"/></svg>