<svg id="Expanded" xmlns="http://www.w3.org/2000/svg" viewBox="0 0 32 32"><defs><style>.cls-1{fill:#202020;}</style></defs><title>unipro-logos-set-for-website-36x36-v01</title><path class="cls-1" d="M7.162,12.593h.666c.517.021.731.494.452,1.721s-.925,1.634-1.42,1.634H6.193Zm13.909,3.36c.151-.474.366-1.549,1.119-1.549s.365,1.14.258,1.549Zm7.221-.35a.809.809,0,0,1-.806-.882,1.839,1.839,0,0,0-.872,1.022L25.84,18.41H24.205l1.076-3.742h-.646l.151-.517h2.28l-.193.688a2,2,0,0,1,1.419-.795.762.762,0,0,1,.807.753.806.806,0,0,1-.807.806m-4.383.785H20.92c-.215.689-.345,1.57.236,1.592s.9-.559,1.1-1.14h1.463a2.364,2.364,0,0,1-2.646,1.678c-1.785-.108-2.022-1.226-1.635-2.431a2.738,2.738,0,0,1,2.84-2.151c1.871.043,1.871,1.592,1.634,2.452m-5.636,2.023H14.767l2.5-3.743H15.821l.15-.517H19.5L17,17.894h1.419Zm-8.36-3.877a2.518,2.518,0,0,1-2.753,1.85h-1.1l-.6,2.022H3.847L5.5,12.6H4.686l.129-.43h3.42c1.893,0,1.915,1.355,1.678,2.366m6.056-6.687C8.231,7.847,1.958,11.5,1.958,16c0,2.83,2.479,5.324,6.242,6.786L11.107,12.6c.28-.968,1.291-2.99,3.485-3.075A1.681,1.681,0,0,1,16.4,11.1a.884.884,0,1,1-.882-.822,1.476,1.476,0,0,0-.925-.448c-.323,0-1.076.129-1.549,1.743L12.29,14.15h2.818l-1.2,4.259H12.409l1.065-3.743H12.151L9.688,23.29a22.52,22.52,0,0,0,6.281.863c7.737,0,14.01-3.651,14.01-8.153s-6.273-8.153-14.01-8.153"/></svg>