<svg id="Expanded" xmlns="http://www.w3.org/2000/svg" viewBox="0 0 32 32"><defs><style>.cls-1{fill:#202020;}</style></defs><title>unipro-logos-set-for-website-36x36-v01</title><path class="cls-1" d="M3.82,20.6c.406-.022.8-.016,1.177-.073.31-.047.457-.3.46-.642S5.321,19.3,5,19.24c-.379-.066-.769-.07-1.161-.1-.011.094-.02.139-.02.185,0,.409,0,.818,0,1.273m-1.9-1.978c.513,0,1.026-.012,1.539-.011.69,0,1.379,0,2.067.016a1.119,1.119,0,0,1,1.145,1.2,1.148,1.148,0,0,1-.729,1.043c-.1.052-.215.087-.347.14a1.105,1.105,0,0,1,.55.7c.031.159.042.324.058.486.006.061,0,.123,0,.185.01.252.1.393.234.386s.276-.19.283-.411c0-.087,0-.175,0-.274h.443a8.156,8.156,0,0,1-.118,1.037c-.038.162-.214.288-.328.43H5.742a1.285,1.285,0,0,0-.124-.084.812.812,0,0,1-.418-.672c-.023-.231-.028-.463-.044-.694a.776.776,0,0,0-.492-.783,4.544,4.544,0,0,0-.843-.1c0,.5,0,.948,0,1.391,0,.241.087.324.324.329.127,0,.255,0,.387,0v.531H1.917v-.534c.169,0,.338,0,.507,0,.236,0,.32-.089.321-.332,0-1.04,0-2.079,0-3.119,0-.2-.08-.295-.266-.295s-.376,0-.564.007Z"/><path class="cls-1" d="M29.827,23.465h-2.61v-.532c.149,0,.3.008.455,0a.208.208,0,0,0,.168-.342c-.277-.361-.564-.713-.868-1.094-.322.39-.638.758-.937,1.141a.182.182,0,0,0,.156.3c.18.007.361,0,.553,0v.526H24.419v-.523c.367.073.556-.2.769-.44.448-.5.9-1,1.369-1.518L25.718,19.9a1.147,1.147,0,0,1-.087-.111,1.135,1.135,0,0,0-1.113-.608.3.3,0,0,1-.077-.011s-.01-.008-.026-.023v-.513h2.666v.534a.892.892,0,0,0-.178.016c-.075.022-.19.043-.208.1a.331.331,0,0,0,.047.257c.152.22.323.426.5.654.223-.269.439-.522.646-.784.09-.113.047-.207-.092-.223-.058-.008-.124.015-.174-.008a.216.216,0,0,1-.121-.129,3.785,3.785,0,0,1,0-.431h2.332v.575a2.218,2.218,0,0,0-.446,0,.919.919,0,0,0-.476.177c-.43.433-.831.9-1.242,1.349a.62.62,0,0,0,.052.089c.5.626,1.007,1.249,1.507,1.877a.627.627,0,0,0,.605.248Z"/><path class="cls-1" d="M9.053,20.946c.054.335.084.677.168,1a1.266,1.266,0,0,0,.769.94,1.169,1.169,0,0,0,1.527-.781,3.308,3.308,0,0,0,.062-2.049,1.162,1.162,0,0,0-1.152-.946,1.192,1.192,0,0,0-1.218.943,8.388,8.388,0,0,0-.156.891m.9,2.6c-.187-.048-.376-.089-.561-.147a2.554,2.554,0,0,1-.834-4.179,2.631,2.631,0,0,1,4.191.681,2.508,2.508,0,0,1-1.83,3.6,1,1,0,0,0-.146.041Z"/><path class="cls-1" d="M16.359,16.363a2.488,2.488,0,0,0,1.117-.278.459.459,0,0,0,.208-.326c0-.091-.148-.223-.254-.258a3.17,3.17,0,0,0-.722-.14,3.229,3.229,0,0,0-1.4.135.514.514,0,0,0-.3.273c-.048.176.133.256.261.335a.534.534,0,0,0,.162.067c.309.067.62.128.93.192m1.676-2.207c.471-1.063.939-2.128,1.415-3.188.049-.109,0-.157-.051-.229a.5.5,0,0,1,.007-.606.454.454,0,0,1,.563-.141.486.486,0,0,1,.259.542.425.425,0,0,1-.356.383c-.138.023-.17.1-.2.217-.414,1.506-.836,3.009-1.246,4.516a1.073,1.073,0,0,1-.557.7,2.885,2.885,0,0,1-1.645.316,5.18,5.18,0,0,1-1.151-.26,1,1,0,0,1-.633-.72c-.451-1.459-.923-2.91-1.38-4.367-.045-.144-.088-.223-.251-.238a.461.461,0,0,1-.386-.45.51.51,0,0,1,.293-.488.467.467,0,0,1,.546.151.549.549,0,0,1,.017.6.268.268,0,0,0-.024.207q.81,1.541,1.634,3.075a.855.855,0,0,0,.065.093c-.084-.742-.161-1.445-.242-2.147-.084-.732-.175-1.463-.255-2.2-.014-.123-.029-.192-.166-.22a.469.469,0,0,1-.34-.469.485.485,0,0,1,.361-.475.455.455,0,0,1,.518.227.512.512,0,0,1-.07.586.217.217,0,0,0-.074.244q.569,2.019,1.131,4.04a.9.9,0,0,0,.06.11c.14-1.616.276-3.181.412-4.741-.343-.2-.442-.386-.361-.658a.459.459,0,0,1,.435-.345.474.474,0,0,1,.452.324.464.464,0,0,1-.157.546c-.162.093-.145.211-.129.357.1.949.2,1.9.3,2.85.061.575.124,1.151.227,1.73q.51-2.179,1.018-4.355c-.28-.221-.358-.42-.265-.663a.494.494,0,0,1,.462-.314.5.5,0,0,1,.43.385.459.459,0,0,1-.246.545c-.157.06-.174.158-.184.3-.07,1.077-.147,2.153-.221,3.23-.023.33-.041.661-.062.992l.049.006"/><path class="cls-1" d="M20.5,20.625a.94.94,0,0,0,.688-.123c.223-.169.185-.43.2-.678h.5v2.311h-.5c-.036-.249.054-.563-.206-.7a3.313,3.313,0,0,0-.687-.2v1.7h1c.869,0,1.245-.379,1.292-1.3,0-.075,0-.149,0-.258h.448v2.079H18.616a.3.3,0,0,1-.019-.061c-.021-.448-.021-.448.406-.45.366,0,.411-.051.411-.441V19.544c0-.311-.044-.355-.339-.359h-.058c-.474,0-.5-.033-.4-.566h4.631v1.888h-.427c-.033-.189-.056-.378-.1-.561a.856.856,0,0,0-.868-.755c-.447-.013-.895,0-1.355,0Z"/><path class="cls-1" d="M17.54,21.338h.482v2.129H13.68v-.528c.14,0,.275,0,.409,0,.228-.01.3-.1.306-.35,0-.718,0-1.437,0-2.155,0-.3,0-.6,0-.9,0-.263-.077-.337-.329-.344l-.351-.007c-.006,0-.012,0-.033-.014v-.529h2.559v.55h-.378c-.337,0-.4.067-.4.416q0,.9,0,1.806v1.549c.5-.025.992-.017,1.475-.083.332-.046.521-.391.556-.845.017-.223.03-.447.047-.69"/></svg>