<svg id="Expanded" xmlns="http://www.w3.org/2000/svg" viewBox="0 0 32 32"><defs><style>.cls-1{fill:#202020;}</style></defs><title>unipro-logos-set-for-website-36x36-v01</title><path class="cls-1" d="M28.778,12.818a.582.582,0,0,0,.575,0,.545.545,0,0,0,.213-.213.58.58,0,0,0,.076-.288.594.594,0,0,0-.077-.29.544.544,0,0,0-.215-.213.586.586,0,0,0-.57,0,.548.548,0,0,0-.214.213.585.585,0,0,0-.078.29.591.591,0,0,0,.076.288A.548.548,0,0,0,28.778,12.818Zm-.112-.734a.423.423,0,0,1,.172-.171.465.465,0,0,1,.228-.06.472.472,0,0,1,.229.06.423.423,0,0,1,.172.171.466.466,0,0,1,.063.233.472.472,0,0,1-.062.232.448.448,0,0,1-.171.172.468.468,0,0,1-.462,0,.448.448,0,0,1-.171-.172.471.471,0,0,1-.061-.232A.456.456,0,0,1,28.666,12.084Z"/><path class="cls-1" d="M8.844,15.617a.5.5,0,0,0-.31-.089c-.057,0-.115,0-.173,0s-.111.007-.159.012-.089.011-.12.017V17.2c.045.007.095.012.151.017s.11.009.163.011.1,0,.138,0a.5.5,0,0,0,.31-.088A.449.449,0,0,0,9,16.908a1.214,1.214,0,0,0,.041-.345V16.2A1.221,1.221,0,0,0,9,15.855.446.446,0,0,0,8.844,15.617Z"/><path class="cls-1" d="M22.065,11.031a9.773,9.773,0,0,0-6.087,1.926,9.768,9.768,0,0,0-6.086-1.926c-4.365,0-7.9,2.381-7.9,5.318s3.537,5.318,7.9,5.318a9.762,9.762,0,0,0,6.086-1.927,9.767,9.767,0,0,0,6.087,1.927c4.364,0,7.9-2.381,7.9-5.318S26.429,11.031,22.065,11.031ZM7.079,17.045a.879.879,0,0,1-.127.266.86.86,0,0,1-.23.223,1.176,1.176,0,0,1-.352.153,2.008,2.008,0,0,1-.49.056c-.116,0-.225,0-.322-.01s-.189-.017-.272-.03-.163-.027-.238-.045a.118.118,0,0,1-.062-.031.087.087,0,0,1-.027-.063v-.338a.092.092,0,0,1,.027-.065.093.093,0,0,1,.062-.025h.01l.141.015.183.012.194.011.178.007c.055,0,.1,0,.136,0a.879.879,0,0,0,.327-.049.314.314,0,0,0,.17-.143.481.481,0,0,0,.048-.231A.345.345,0,0,0,6.4,16.6a.461.461,0,0,0-.124-.141,2.188,2.188,0,0,0-.241-.159l-.621-.372a1.464,1.464,0,0,1-.339-.265.815.815,0,0,1-.169-.283.952.952,0,0,1-.047-.312.982.982,0,0,1,.061-.358.7.7,0,0,1,.2-.283.948.948,0,0,1,.363-.186,2.034,2.034,0,0,1,.553-.067c.078,0,.162,0,.249.008s.174.012.258.021.162.017.231.027.123.02.164.029A.119.119,0,0,1,7,14.29a.085.085,0,0,1,.024.058V14.7a.087.087,0,0,1-.022.06.08.08,0,0,1-.058.025H6.934c-.156-.014-.311-.026-.465-.035s-.309-.012-.462-.012a.652.652,0,0,0-.377.088.278.278,0,0,0-.116.246.272.272,0,0,0,.032.139.413.413,0,0,0,.117.129,1.8,1.8,0,0,0,.236.15l.564.315a1.789,1.789,0,0,1,.321.219,1.076,1.076,0,0,1,.2.229.842.842,0,0,1,.1.245,1.1,1.1,0,0,1,.029.266A1.063,1.063,0,0,1,7.079,17.045Zm2.578-.482a1.465,1.465,0,0,1-.123.631.875.875,0,0,1-.373.406,1.27,1.27,0,0,1-.627.143c-.057,0-.125,0-.2-.008s-.161-.013-.249-.025v.832a.094.094,0,0,1-.027.067.1.1,0,0,1-.067.027H7.556a.092.092,0,0,1-.094-.094V15.27a.162.162,0,0,1,.008-.058.084.084,0,0,1,.038-.039.3.3,0,0,1,.081-.03c.1-.025.2-.047.308-.065s.214-.032.323-.042a3.107,3.107,0,0,1,.314-.015,1.259,1.259,0,0,1,.627.142.888.888,0,0,1,.373.4,1.48,1.48,0,0,1,.123.633Zm2.419-.085a.143.143,0,0,1-.022.087.083.083,0,0,1-.072.031H10.449v.014a.868.868,0,0,0,.024.208.562.562,0,0,0,.089.192.438.438,0,0,0,.173.142.657.657,0,0,0,.278.055c.115,0,.227,0,.333-.008s.206-.012.3-.019l.235-.02h.014a.1.1,0,0,1,.061.018.066.066,0,0,1,.024.052v.311a.143.143,0,0,1-.017.084.119.119,0,0,1-.082.038c-.075.014-.145.026-.211.036s-.133.019-.2.025-.141.011-.222.014-.173,0-.278,0a1.311,1.311,0,0,1-.3-.034,1.179,1.179,0,0,1-.3-.115.981.981,0,0,1-.27-.215,1.024,1.024,0,0,1-.192-.338,1.5,1.5,0,0,1-.073-.478v-.348a1.435,1.435,0,0,1,.133-.636.956.956,0,0,1,.384-.412,1.213,1.213,0,0,1,.612-.146,1.238,1.238,0,0,1,.48.087.963.963,0,0,1,.351.247,1.066,1.066,0,0,1,.215.378,1.5,1.5,0,0,1,.073.482Zm2.089-.968a.064.064,0,0,1-.025.052.1.1,0,0,1-.06.018h-.014l-.131-.015c-.041,0-.083-.008-.128-.01s-.094,0-.15-.006l-.2,0a.483.483,0,0,0-.164.028.367.367,0,0,0-.145.1.478.478,0,0,0-.1.189,1.057,1.057,0,0,0-.04.3V16.6a1.059,1.059,0,0,0,.04.3.485.485,0,0,0,.1.189.367.367,0,0,0,.145.1.459.459,0,0,0,.164.027h.2c.056,0,.106,0,.15-.006s.087-.006.128-.011.085-.008.131-.015h.014a.1.1,0,0,1,.06.018.065.065,0,0,1,.025.053v.306a.122.122,0,0,1-.02.082.133.133,0,0,1-.079.04,1.839,1.839,0,0,1-.236.041,3.447,3.447,0,0,1-.37.02,1.244,1.244,0,0,1-.426-.071.921.921,0,0,1-.339-.213.97.97,0,0,1-.226-.357,1.463,1.463,0,0,1-.081-.5v-.437a1.453,1.453,0,0,1,.081-.5A.966.966,0,0,1,12.7,15.3a.934.934,0,0,1,.339-.213,1.244,1.244,0,0,1,.426-.07,3.229,3.229,0,0,1,.37.019,1.808,1.808,0,0,1,.236.042.127.127,0,0,1,.079.04.12.12,0,0,1,.02.082ZM16.258,17.3a.641.641,0,0,1-.172.234.839.839,0,0,1-.289.156,1.346,1.346,0,0,1-.4.057c-.047,0-.1,0-.172,0s-.141-.008-.219-.015-.156-.018-.234-.029-.15-.028-.217-.045a.127.127,0,0,1-.066-.038.107.107,0,0,1-.023-.07v-.282a.075.075,0,0,1,.023-.052.079.079,0,0,1,.057-.024h.019c.058.007.124.015.2.021l.228.016.211.011c.065,0,.115,0,.152,0a.622.622,0,0,0,.216-.03.169.169,0,0,0,.1-.08.243.243,0,0,0,.022-.116.156.156,0,0,0-.02-.08.247.247,0,0,0-.066-.075.826.826,0,0,0-.121-.084l-.644-.395a.932.932,0,0,1-.2-.17.794.794,0,0,1-.14-.221.7.7,0,0,1-.051-.258.636.636,0,0,1,.223-.529,1.067,1.067,0,0,1,.671-.176c.126,0,.236,0,.333.012s.184.02.265.035.16.029.239.047a.106.106,0,0,1,.063.038.112.112,0,0,1,.021.07V15.5a.1.1,0,0,1-.019.065.07.07,0,0,1-.056.024H16.16l-.138-.017c-.06-.007-.126-.012-.2-.018s-.147-.011-.223-.015-.147-.007-.216-.007a.514.514,0,0,0-.246.044.161.161,0,0,0-.078.154.133.133,0,0,0,.05.1.945.945,0,0,0,.138.1l.616.376a1.281,1.281,0,0,1,.237.179.76.76,0,0,1,.137.178.61.61,0,0,1,.062.178.908.908,0,0,1,.015.179A.7.7,0,0,1,16.258,17.3Zm2.321.315a.1.1,0,0,1-.028.067.094.094,0,0,1-.066.027h-.4a.094.094,0,0,1-.067-.027.1.1,0,0,1-.027-.067v-.075a1.539,1.539,0,0,1-.328.153,1.134,1.134,0,0,1-.335.054,1.149,1.149,0,0,1-.292-.034.714.714,0,0,1-.261-.12.6.6,0,0,1-.188-.241.956.956,0,0,1-.072-.39v-.019a.794.794,0,0,1,.116-.449A.7.7,0,0,1,17,16.217a2,2,0,0,1,.662-.091h.3v-.207a.487.487,0,0,0-.046-.235.243.243,0,0,0-.137-.116.7.7,0,0,0-.231-.03c-.1,0-.2,0-.3,0s-.186.008-.268.014-.148.012-.2.019h-.024a.1.1,0,0,1-.059-.016.07.07,0,0,1-.025-.064v-.3a.092.092,0,0,1,.022-.064.122.122,0,0,1,.067-.035c.095-.02.209-.037.342-.052a3.947,3.947,0,0,1,.443-.023,1.445,1.445,0,0,1,.565.1.738.738,0,0,1,.35.3.958.958,0,0,1,.12.5Zm2.492-2.466a.031.031,0,0,1,0,.017L20.475,17.3a.628.628,0,0,1-.141.27.5.5,0,0,1-.208.134.724.724,0,0,1-.239.038.7.7,0,0,1-.236-.038.5.5,0,0,1-.207-.134.661.661,0,0,1-.14-.27l-.592-2.139a.043.043,0,0,1,0-.017v-.016a.076.076,0,0,1,.022-.053.069.069,0,0,1,.053-.022h.471a.079.079,0,0,1,.058.024.141.141,0,0,1,.036.07l.451,1.97a.2.2,0,0,0,.038.092.063.063,0,0,0,.051.025.066.066,0,0,0,.052-.025.216.216,0,0,0,.038-.092l.451-1.97a.129.129,0,0,1,.039-.07.084.084,0,0,1,.06-.024H21a.068.068,0,0,1,.053.022.076.076,0,0,1,.022.053Zm2.321,1.333a.143.143,0,0,1-.022.087.083.083,0,0,1-.072.031H21.765v.014a.868.868,0,0,0,.024.208.562.562,0,0,0,.089.192.438.438,0,0,0,.173.142.657.657,0,0,0,.278.055c.115,0,.227,0,.333-.008s.206-.012.3-.019l.236-.02h.014a.1.1,0,0,1,.061.018.066.066,0,0,1,.024.052v.311a.143.143,0,0,1-.017.084.121.121,0,0,1-.082.038c-.075.014-.145.026-.211.036s-.133.019-.2.025-.141.011-.222.014-.173,0-.278,0a1.311,1.311,0,0,1-.3-.034,1.179,1.179,0,0,1-.305-.115.981.981,0,0,1-.27-.215,1.024,1.024,0,0,1-.192-.338,1.5,1.5,0,0,1-.073-.478v-.348a1.435,1.435,0,0,1,.133-.636.956.956,0,0,1,.384-.412,1.213,1.213,0,0,1,.612-.146,1.238,1.238,0,0,1,.48.087.963.963,0,0,1,.351.247,1.066,1.066,0,0,1,.215.378,1.528,1.528,0,0,1,.073.482Zm1.722-1.025a.1.1,0,0,1-.027.067.094.094,0,0,1-.067.027,1.28,1.28,0,0,0-.345.046,1.505,1.505,0,0,0-.3.124v1.89a.1.1,0,0,1-.027.069.092.092,0,0,1-.067.029h-.432a.092.092,0,0,1-.067-.029.11.11,0,0,1-.027-.069V15.148a.1.1,0,0,1,.027-.067.094.094,0,0,1,.067-.027h.409a.094.094,0,0,1,.066.027.1.1,0,0,1,.028.067v.1a1.1,1.1,0,0,1,.235-.138,1.218,1.218,0,0,1,.23-.069,1.115,1.115,0,0,1,.207-.018.094.094,0,0,1,.067.027.1.1,0,0,1,.027.067ZM27.066,17.3a.641.641,0,0,1-.172.234.843.843,0,0,1-.288.156,1.358,1.358,0,0,1-.4.057c-.047,0-.1,0-.172,0s-.141-.008-.219-.015-.156-.018-.234-.029-.15-.028-.217-.045a.12.12,0,0,1-.065-.038.1.1,0,0,1-.024-.07v-.282a.075.075,0,0,1,.023-.052.079.079,0,0,1,.057-.024h.019c.058.007.124.015.2.021l.228.016.211.011c.065,0,.115,0,.152,0a.622.622,0,0,0,.216-.03.175.175,0,0,0,.1-.08.256.256,0,0,0,.021-.116.156.156,0,0,0-.02-.08.247.247,0,0,0-.066-.075.867.867,0,0,0-.12-.084l-.645-.395a.932.932,0,0,1-.2-.17.794.794,0,0,1-.14-.221.7.7,0,0,1-.05-.258.635.635,0,0,1,.222-.529,1.067,1.067,0,0,1,.671-.176q.189,0,.333.012c.1.009.184.02.265.035s.16.029.239.047a.106.106,0,0,1,.063.038.112.112,0,0,1,.021.07V15.5a.1.1,0,0,1-.019.065.068.068,0,0,1-.056.024h-.019l-.138-.017c-.06-.007-.126-.012-.2-.018s-.147-.011-.223-.015-.147-.007-.215-.007a.518.518,0,0,0-.247.044.161.161,0,0,0-.078.154.133.133,0,0,0,.05.1.945.945,0,0,0,.138.1l.616.376a1.326,1.326,0,0,1,.238.179.754.754,0,0,1,.136.178.645.645,0,0,1,.063.178.906.906,0,0,1,.014.179A.7.7,0,0,1,27.066,17.3Z"/><path class="cls-1" d="M11.215,15.625a.478.478,0,0,0-.258-.068.5.5,0,0,0-.26.067.457.457,0,0,0-.177.2.7.7,0,0,0-.066.315v.019h1v-.019a.724.724,0,0,0-.064-.313A.456.456,0,0,0,11.215,15.625Z"/><path class="cls-1" d="M28.929,12.375h.032a.132.132,0,0,1,.086.026.4.4,0,0,1,.086.126l.051.1h.154l-.072-.123c-.026-.044-.041-.069-.046-.075a.273.273,0,0,0-.041-.047.154.154,0,0,0-.043-.023.2.2,0,0,0,.122-.058.164.164,0,0,0,.043-.114.178.178,0,0,0-.023-.088.151.151,0,0,0-.057-.058.247.247,0,0,0-.1-.025H28.8v.612h.125Zm0-.264h.05a.578.578,0,0,1,.134.009.079.079,0,0,1,.042.028.081.081,0,0,1,.014.046.08.08,0,0,1-.015.047.081.081,0,0,1-.041.029.661.661,0,0,1-.134.008h-.05Z"/><path class="cls-1" d="M17.4,16.564a.4.4,0,0,0-.16.076.277.277,0,0,0-.079.126.566.566,0,0,0-.021.173v.019a.38.38,0,0,0,.035.178.2.2,0,0,0,.111.089.583.583,0,0,0,.192.024.944.944,0,0,0,.253-.037,1.187,1.187,0,0,0,.227-.094v-.579h-.3A1.167,1.167,0,0,0,17.4,16.564Z"/><path class="cls-1" d="M22.531,15.625a.478.478,0,0,0-.258-.068.5.5,0,0,0-.26.067.457.457,0,0,0-.177.2.7.7,0,0,0-.066.315v.019h1v-.019a.71.71,0,0,0-.063-.313A.456.456,0,0,0,22.531,15.625Z"/><path class="cls-1" d="M17.036,17.709a.714.714,0,0,1-.261-.12.6.6,0,0,1-.188-.241.956.956,0,0,1-.072-.39v-.019a.794.794,0,0,1,.116-.449A.7.7,0,0,1,17,16.217a2,2,0,0,1,.662-.091h.117a3.7,3.7,0,0,0-.079-.567.64.64,0,0,0-.156-.021c-.1,0-.2,0-.3,0s-.186.008-.268.014-.148.012-.2.019h-.024a.1.1,0,0,1-.059-.016.07.07,0,0,1-.025-.064v-.3a.092.092,0,0,1,.022-.064.122.122,0,0,1,.067-.035c.095-.02.208-.037.342-.052a4.155,4.155,0,0,1,.44-.023,4.985,4.985,0,0,0-1.563-2.064,4.421,4.421,0,0,0-1.815,3.392,4.417,4.417,0,0,0,1.815,3.391,5.018,5.018,0,0,0,1.552-2.03,1.166,1.166,0,0,1-.2.033A1.149,1.149,0,0,1,17.036,17.709Zm-.778-.413a.641.641,0,0,1-.172.234.839.839,0,0,1-.289.156,1.346,1.346,0,0,1-.4.057c-.047,0-.1,0-.172,0s-.141-.008-.219-.015-.156-.018-.234-.029-.15-.028-.217-.045a.127.127,0,0,1-.066-.038.109.109,0,0,1-.023-.07v-.282a.075.075,0,0,1,.023-.052.079.079,0,0,1,.057-.024h.019c.058.007.124.015.2.021l.228.016.211.011c.065,0,.115,0,.152,0a.622.622,0,0,0,.216-.03.169.169,0,0,0,.1-.08.243.243,0,0,0,.022-.116.156.156,0,0,0-.02-.08.247.247,0,0,0-.066-.075.826.826,0,0,0-.121-.084l-.644-.395a.932.932,0,0,1-.2-.17.794.794,0,0,1-.14-.221.7.7,0,0,1-.051-.258.636.636,0,0,1,.223-.529,1.067,1.067,0,0,1,.671-.176c.126,0,.236,0,.333.012s.184.02.265.035.16.029.239.047a.106.106,0,0,1,.063.038.112.112,0,0,1,.021.07V15.5a.1.1,0,0,1-.019.065.07.07,0,0,1-.056.024H16.16l-.138-.017c-.06-.007-.126-.012-.2-.018s-.147-.011-.223-.015-.147-.007-.216-.007a.514.514,0,0,0-.246.044.161.161,0,0,0-.078.154.133.133,0,0,0,.05.1.893.893,0,0,0,.138.1l.616.376a1.281,1.281,0,0,1,.237.179.76.76,0,0,1,.137.178.61.61,0,0,1,.062.178.908.908,0,0,1,.015.179A.7.7,0,0,1,16.258,17.3Z"/><path class="cls-1" d="M17.4,16.564a.4.4,0,0,0-.16.076.277.277,0,0,0-.079.126.566.566,0,0,0-.021.173v.019a.38.38,0,0,0,.035.178.2.2,0,0,0,.111.089.583.583,0,0,0,.192.024.9.9,0,0,0,.206-.03,3.6,3.6,0,0,0,.1-.68h-.119A1.167,1.167,0,0,0,17.4,16.564Z"/></svg>