<svg id="Expanded" xmlns="http://www.w3.org/2000/svg" viewBox="0 0 32 32.053"><defs><style>.cls-1{fill:#202020;}</style></defs><title>unipro-logos-set-for-website-36x36-v01</title><polygon class="cls-1" points="4.184 16.942 2.917 13.902 2.063 13.902 4.17 18.616 5.589 15.473 7.008 18.616 9.116 13.902 8.261 13.902 6.99 16.942 5.589 13.766 4.184 16.942"/><path class="cls-1" d="M12.518,18.505V15.158h-.763V15.6a1.471,1.471,0,0,0-1.174-.5,1.739,1.739,0,1,0,0,3.466,1.524,1.524,0,0,0,1.174-.511v.456Zm-.763-1.682a1.049,1.049,0,0,1-1.174,1.12,1.062,1.062,0,0,1-1.1-1.112,1.045,1.045,0,0,1,1.1-1.111,1.037,1.037,0,0,1,1.174,1.1"/><path class="cls-1" d="M13.211,15.158h.762v3.347h-.762Zm.383-.8a.417.417,0,0,1-.439-.4.438.438,0,0,1,.874,0,.413.413,0,0,1-.435.4"/><polygon class="cls-1" points="15.91 13.259 15.147 13.954 15.147 15.158 14.44 15.158 14.44 15.767 15.147 15.767 15.147 18.504 15.91 18.504 15.91 15.767 16.723 15.767 16.723 15.158 15.91 15.158 15.91 13.259"/><path class="cls-1" d="M19.215,15.839a.9.9,0,0,0-.476-.119.734.734,0,0,0-.786.814v1.971H17.19V15.158h.763v.469a1,1,0,0,1,.911-.533,1.364,1.364,0,0,1,.859.285Z"/><path class="cls-1" d="M23.421,16.823A1.8,1.8,0,0,0,21.5,15.094a1.746,1.746,0,1,0,0,3.475,1.814,1.814,0,0,0,1.923-1.746m-.781,0a1.14,1.14,0,0,1-2.279,0,1.14,1.14,0,0,1,2.279,0"/><path class="cls-1" d="M25.038,18.569a2.667,2.667,0,0,1-1.234-.32v-.715a2.593,2.593,0,0,0,1.211.434c.3,0,.541-.063.541-.31,0-.171-.065-.282-.444-.478l-.661-.34c-.415-.221-.633-.464-.633-.817,0-.541.439-.929,1.23-.929a2.554,2.554,0,0,1,1.109.26v.694a2.328,2.328,0,0,0-1.109-.349c-.291,0-.467.1-.467.285,0,.11.014.175.323.345l.634.337c.508.268.785.493.785.923,0,.631-.536.98-1.285.98"/><path class="cls-1" d="M30.1,17.006v-.052c0-1.247-.679-1.86-1.669-1.86a1.677,1.677,0,0,0-1.76,1.686,1.743,1.743,0,0,0,1.876,1.789,1.986,1.986,0,0,0,1.35-.443l-.485-.439a1.419,1.419,0,0,1-.865.256,1.045,1.045,0,0,1-1.086-.937Zm-.846-.575H27.506a.942.942,0,0,1,.929-.724.765.765,0,0,1,.823.724"/></svg>