<svg id="market_research" xmlns="http://www.w3.org/2000/svg" viewBox="0 0 32 32">
  <path className="cls-1" d="M16,28.82a7.89,7.89,0,0,1-7.88-7.88v-.25H23.88v.25A7.89,7.89,0,0,1,16,28.82ZM8.62,21.19a7.38,7.38,0,0,0,14.76,0Z"/><path className="cls-1" d="M16,30.11a9.18,9.18,0,0,1-9.17-9.17,9,9,0,0,1,5.91-8.25l0-9.77a.53.53,0,0,0-.52-.53v-.5a1,1,0,0,1,1,1l0,9.93a.25.25,0,0,1-.16.24,8.54,8.54,0,0,0-5.75,7.84,8.67,8.67,0,0,0,17.34,0,8.24,8.24,0,0,0-5.76-7.85.25.25,0,0,1-.17-.24l0-9.91a1,1,0,0,1,1-1v.5a.52.52,0,0,0-.52.52l0,9.74a8.71,8.71,0,0,1,5.93,8.26A9.18,9.18,0,0,1,16,30.11Z"/>
  <path className="cls-1" d="M15,12.68a1.08,1.08,0,1,1,1.08-1.08A1.08,1.08,0,0,1,15,12.68ZM15,11a.58.58,0,1,0,.58.58A.58.58,0,0,0,15,11Z"/><path className="cls-1" d="M17.38,16.75A1.81,1.81,0,0,1,16,13.81a1.81,1.81,0,0,1,2.54-.29,1.85,1.85,0,0,1,.67,1.22,1.83,1.83,0,0,1-.39,1.33,1.79,1.79,0,0,1-1.21.66Zm0-3.12h-.15a1.31,1.31,0,0,0-1.15,1.44,1.32,1.32,0,0,0,.48.88,1.34,1.34,0,0,0,1,.28,1.32,1.32,0,0,0,.67-2.33A1.35,1.35,0,0,0,17.38,13.63Z"/>
  <circle className="cls-1" cx="14.94" cy="26.69" r="0.79"/>
  <circle className="cls-1" cx="12.31" cy="24.41" r="1.57"/>
  <circle class="cls-1" cx="14.47" cy="22.5" r="0.63"/>
</svg>
