<svg id="Expanded" xmlns="http://www.w3.org/2000/svg" viewBox="0 0 32 32">
  <path class="cls-1" d="M24.27,14.58A4.42,4.42,0,1,0,19.88,10a.24.24,0,0,0-.11-.09l-4.53-2-.2.46L18.73,10A11.55,11.55,0,0,0,7.49,21.12a4.41,4.41,0,1,0,.5,0c.12-5.85,4.86-10.43,11-10.68l-3,3.07.36.35,3.52-3.6s0,0,0,0A4.42,4.42,0,0,0,24.27,14.58ZM11.65,25.51A3.92,3.92,0,1,1,7.73,21.6,3.92,3.92,0,0,1,11.65,25.51ZM24.27,6.25a3.92,3.92,0,1,1-3.92,3.92A3.92,3.92,0,0,1,24.27,6.25Z"/><polygon class="cls-1" points="27.97 21.42 24.27 25.1 20.57 21.42 20.21 21.77 23.91 25.45 20.21 29.13 20.57 29.48 24.27 25.8 27.97 29.48 28.32 29.13 24.62 25.45 28.32 21.77 27.97 21.42"/><polygon class="cls-1" points="4.04 10.34 7.74 6.66 11.44 10.34 11.79 9.99 8.1 6.31 11.79 2.63 11.44 2.27 7.74 5.96 4.04 2.27 3.69 2.63 7.38 6.31 3.69 9.99 4.04 10.34"/></svg>
